<svg width="61" height="23" viewBox="0 0 61 23" fill="none" xmlns="http://www.w3.org/2000/svg">
<g clip-path="url(#clip0_1082_1412)">
<path d="M27.4207 6.77295L25.358 20.7099H29.3848L31.4474 6.77295H27.4207Z" fill="#373D48"/>
<path d="M59.4886 13.3034L59.8391 12.9647C60.1713 12.6407 60.9526 11.7352 60.9964 10.2811C61.0292 9.19148 60.7335 8.29328 60.1458 7.6822C59.5653 7.07849 58.722 6.77295 57.6377 6.77295H49.0074L46.9447 20.7099H55.5787C58.5723 20.7099 60.5583 18.9098 60.6423 16.1231C60.6788 14.901 60.2115 14.1095 59.8136 13.6604L59.4886 13.2997V13.3034ZM56.3198 16.3219C56.3271 16.6459 56.2176 16.9477 55.9985 17.1723C55.6225 17.5588 55.0676 17.5883 54.907 17.5883H51.4023L51.7637 15.155H55.0676C55.4692 15.155 55.7905 15.2802 56.0205 15.5231C56.3235 15.8471 56.3235 16.2446 56.3198 16.3219V16.3219ZM56.7469 11.8714C56.3709 12.2579 55.816 12.2874 55.6554 12.2874H52.1908L52.5486 9.8541H55.8124C56.2139 9.8541 56.5316 9.97926 56.7615 10.2222C57.0536 10.5314 57.0682 10.9069 57.0646 11.0137C57.0719 11.3413 56.9587 11.6431 56.7433 11.8714" fill="#373D48"/>
<path d="M42.2025 6.51514C38.9132 6.51514 34.6747 8.18639 33.5502 12.8983C33.0428 15.0297 33.3275 16.9145 34.3716 18.3575C35.4377 19.83 37.2229 20.7245 39.3914 20.8828C39.6506 20.9012 39.9098 20.9122 40.1617 20.9122C41.5709 20.9122 42.6442 20.6177 43.2356 20.4079L43.692 17.2789C43.3269 17.3857 42.9509 17.4556 42.5675 17.4887C42.3959 17.5035 42.2134 17.5145 42.0345 17.5145C40.8736 17.5145 39.6798 17.2789 38.862 16.6641C37.953 15.9831 37.5952 15.0444 37.5952 14.0726C37.5952 12.0774 39.2636 10.0564 42.4507 10.0564C42.5602 10.0564 42.6697 10.0564 42.7793 10.0638C43.4656 10.0932 44.1191 10.2368 44.6959 10.4798L45.2253 6.9716C44.2505 6.67343 43.2356 6.51882 42.1988 6.51882" fill="#373D48"/>
<path d="M14.5993 2.23413L14.9205 0.065918C7.23211 2.71637 4.2093 8.11297 3.34773 10.8186H3.35138C4.20565 8.34489 8.10463 4.42443 14.5993 2.23413V2.23413Z" fill="url(#paint0_linear_1082_1412)"/>
<path d="M23.1091 10.0825L19.5862 7.06762L19.4182 8.11307C14.0225 9.10699 5.50896 12.2802 3.26011 17.5958C3.26011 17.5958 1.82172 20.7579 4.55977 21.7813C4.55977 21.7813 4.60723 21.796 4.61088 21.8107C4.61818 21.8328 4.61088 21.8512 4.55247 21.8512C3.90264 21.8512 1.75236 21.6304 1.75966 18.8584C1.75966 18.5676 1.80347 18.2805 1.87283 17.997C2.33283 16.138 5.2242 9.3794 17.7681 6.17309L18.2025 3.1582C13.7158 4.06377 6.39974 6.69582 2.91694 11.7096C-0.0474484 15.9834 -0.547598 18.9762 0.503811 20.9935C1.30697 22.5359 3.44265 22.9077 4.73865 22.2046C5.61118 21.7334 7.09703 20.526 8.86398 19.591C10.5287 18.7112 12.0693 17.9676 14.4897 17.5627L14.8767 14.938C9.60507 15.7442 6.26101 18.4204 5.12928 19.9333C5.12928 19.9333 4.37723 20.9125 4.74231 21.5531C4.76056 21.5862 4.76786 21.6304 4.7058 21.5862C4.34438 21.3432 3.42804 20.1763 4.61818 18.494C5.56007 17.1614 8.90778 13.1342 18.8378 12.0335L18.6735 13.1636L23.1164 10.0825H23.1091Z" fill="url(#paint1_linear_1082_1412)"/>
<path d="M3.83693 22.9961C7.64099 23.3053 10.1162 22.547 12.5147 21.3874L12.8506 19.4585C11.5144 20.3052 10.149 21.0966 8.50986 21.7298C6.59323 22.4697 4.98326 22.79 3.84058 22.9924L3.83693 22.9961Z" fill="url(#paint2_linear_1082_1412)"/>
</g>
<defs>
<linearGradient id="paint0_linear_1082_1412" x1="2.30362" y1="8.33753" x2="15.9808" y2="2.57725" gradientUnits="userSpaceOnUse">
<stop stop-color="#ED7300"/>
<stop offset="0.02" stop-color="#ED7300"/>
<stop offset="0.11" stop-color="#EB6302"/>
<stop offset="0.39" stop-color="#E83809"/>
<stop offset="0.64" stop-color="#E6190E"/>
<stop offset="0.85" stop-color="#E50611"/>
<stop offset="1" stop-color="#E50013"/>
</linearGradient>
<linearGradient id="paint1_linear_1082_1412" x1="-0.930925" y1="17.6252" x2="22.1852" y2="7.89412" gradientUnits="userSpaceOnUse">
<stop stop-color="#ED7300"/>
<stop offset="0.02" stop-color="#ED7300"/>
<stop offset="0.11" stop-color="#EB6302"/>
<stop offset="0.39" stop-color="#E83809"/>
<stop offset="0.64" stop-color="#E6190E"/>
<stop offset="0.85" stop-color="#E50611"/>
<stop offset="1" stop-color="#E50013"/>
</linearGradient>
<linearGradient id="paint2_linear_1082_1412" x1="4.2166" y1="23.9017" x2="13.1359" y2="20.145" gradientUnits="userSpaceOnUse">
<stop stop-color="#ED7300"/>
<stop offset="0.02" stop-color="#ED7300"/>
<stop offset="0.11" stop-color="#EB6302"/>
<stop offset="0.39" stop-color="#E83809"/>
<stop offset="0.64" stop-color="#E6190E"/>
<stop offset="0.85" stop-color="#E50611"/>
<stop offset="1" stop-color="#E50013"/>
</linearGradient>
<clipPath id="clip0_1082_1412">
<rect width="61" height="23" fill="white"/>
</clipPath>
</defs>
</svg>
