<svg preserveAspectRatio="none" width="100%" height="100%" overflow="visible" style="display: block;" viewBox="0 0 56 56" fill="none" xmlns="http://www.w3.org/2000/svg">
<g id="icon-loop">
<rect width="56" height="56" rx="16" fill="var(--fill-0, #ED6A82)"/>
<g id="Vector">
<path d="M44.9396 29.7961C44.0979 33.6301 41.2514 36.2371 37.5517 36.9787C32.9873 37.8922 29.7315 34.9795 27.6387 31.0346L24.9911 26.0462C24.3216 24.7848 23.3383 23.4393 22.0337 22.7665C19.7879 21.6121 17.0408 22.5945 15.5793 24.4025C13.9533 26.4132 13.85 29.0966 15.3192 31.2487C16.6544 33.202 19.3785 34.3067 21.7429 33.3511C23.059 32.8197 23.7974 31.6271 24.7654 30.4995L26.5827 33.7333C24.4517 36.6843 20.8476 37.8196 17.3584 36.7187C12.8782 35.3082 10.0394 30.7097 11.0685 26.115C11.8261 22.7474 14.267 20.1978 17.5153 19.2307C22.2212 17.8316 25.9476 20.4462 28.1437 24.6166L30.512 29.1081C31.3078 30.6142 32.2795 32.1393 33.7219 33.0911C35.1643 34.043 37.0773 33.8098 38.5579 33.0338C40.5971 31.9635 41.8635 29.8152 41.6837 27.5638C41.5077 25.3467 40.0998 23.4316 37.9419 22.6289C35.7841 21.8262 33.7564 22.4148 32.3255 24.1579L31.2198 25.5073L29.4369 22.281C31.5258 19.2918 35.1605 18.1757 38.6497 19.2765C43.0534 20.6603 45.9534 25.1785 44.9396 29.7961Z" fill="var(--fill-0, white)"/>
<path d="M17.2696 18.4157C19.8434 17.6506 22.1917 17.9793 24.19 19.093C26.1673 20.195 27.751 22.0348 28.9029 24.2221L31.2708 28.7127C32.056 30.1988 32.9454 31.557 34.1966 32.3826C35.282 33.0988 36.836 32.974 38.1578 32.2813C39.9152 31.3586 40.98 29.5209 40.8291 27.6312C40.6788 25.7378 39.482 24.1104 37.6413 23.4256C35.8385 22.755 34.1956 23.2264 32.99 24.6945L31.479 26.6286L30.1538 24.2304L28.8286 21.8323C31.1444 18.5184 35.0823 17.259 38.9081 18.4656C43.7034 19.9724 46.892 24.8998 45.7771 29.9774C44.8742 34.0902 41.8367 36.9179 37.9092 37.7736L37.7213 37.8126C32.7542 38.8068 29.2632 35.7054 27.0869 31.8105L26.8802 31.4312L24.2327 26.4429C23.5901 25.2322 22.7098 24.0743 21.6396 23.522L21.4697 23.4406C19.7008 22.648 17.4824 23.4081 16.248 24.9351C14.8599 26.6515 14.7684 28.9251 16.0283 30.771L16.1392 30.926C17.3193 32.5027 19.5508 33.3184 21.4199 32.563L21.512 32.5235C21.9681 32.32 22.3564 32.0002 22.755 31.5716C22.9688 31.3416 23.1774 31.0895 23.402 30.8125C23.6215 30.5417 23.8608 30.2413 24.113 29.9475L24.4232 29.5033L25.7647 31.8907L27.1062 34.2781L27.1235 34.2781C24.7699 37.5373 20.9316 38.7389 17.0988 37.5297C12.2182 35.9928 9.10135 30.9775 10.2319 25.9302C11.0577 22.2591 13.7274 19.4703 17.2696 18.4157ZM23.3509 20.5771C21.8103 19.7185 20.0094 19.4301 17.9601 19.9892L17.7613 20.0457C14.8071 20.9253 12.5944 23.2363 11.9051 26.3004C10.9778 30.4419 13.5382 34.6233 17.6174 35.9076C20.5901 36.8455 23.6233 35.9854 25.5586 33.6578L24.6311 32.0075C24.4353 32.2472 24.2318 32.4928 24.0147 32.7263C23.4996 33.2802 22.8852 33.808 22.0657 34.1389C19.2664 35.2701 16.1338 33.9557 14.6099 31.7266C12.9318 29.2684 13.047 26.1745 14.9109 23.8698L15.0699 23.6812C16.7302 21.7884 19.7167 20.7033 22.3009 21.9478L22.4277 22.0109L22.4289 22.0113C23.9675 22.8048 25.0532 24.338 25.7494 25.6497L28.3969 30.638L28.5898 30.9924C30.6094 34.6102 33.506 36.9203 37.3823 36.1444L37.6966 36.0763C40.9221 35.3184 43.36 32.9958 44.1023 29.6151C45.0151 25.4576 42.4032 21.3484 38.3913 20.0876H38.39C35.407 19.1465 32.3509 19.9997 30.4534 22.3516L31.3582 23.989L31.6604 23.6209L31.6612 23.6205C33.3175 21.603 35.7301 20.8976 38.2427 21.8323C40.7175 22.7529 42.3365 24.956 42.5383 27.4966L42.5529 27.7409C42.6544 30.2619 41.2065 32.6062 38.9584 33.7862C37.3189 34.6454 35.0467 34.9872 33.2474 33.7999C31.6138 32.7219 30.5592 31.0294 29.7528 29.5033L29.7524 29.5025L27.3845 25.0111C26.3403 23.0283 24.9623 21.4751 23.3509 20.5771Z" fill="var(--fill-0, white)"/>
</g>
</g>
</svg>
