<svg width="158" height="47" viewBox="0 0 158 47" fill="none" xmlns="http://www.w3.org/2000/svg">
<rect x="0.5" y="0.5" width="157" height="46" rx="12" stroke="black" stroke-opacity="0.3"/>
<path d="M37.5424 22.425C37.5127 18.8873 40.4488 17.163 40.5855 17.0859C38.9213 14.6682 36.3418 14.3364 35.4324 14.3127C33.2631 14.0876 31.165 15.6045 30.0595 15.6045C28.9362 15.6045 27.2363 14.3364 25.3998 14.372C23.0401 14.4075 20.8351 15.7705 19.6286 17.88C17.1323 22.188 18.9926 28.5165 21.3879 32.0009C22.5825 33.7075 23.9793 35.6096 25.8099 35.5444C27.5988 35.4733 28.2705 34.4067 30.428 34.4067C32.5677 34.4067 33.1977 35.5444 35.064 35.5029C36.9837 35.4733 38.1962 33.7904 39.3492 32.072C40.7341 30.1165 41.2869 28.1906 41.3106 28.0958C41.2631 28.0662 37.5781 26.6618 37.5424 22.425ZM34.0179 12.0195C34.9807 10.8166 35.6404 9.18703 35.4562 7.52783C34.0654 7.58706 32.318 8.48776 31.3195 9.66108C30.4339 10.6981 29.6375 12.3928 29.8455 13.9868C31.4027 14.0994 33.0134 13.1987 34.0179 12.0195Z" fill="black"/>
<path d="M63.468 35.2894H60.9658L59.5928 30.9992H54.832L53.5244 35.2894H51.0876L55.8068 20.6766H58.7191L63.468 35.2894ZM59.1827 29.1978L57.9405 25.3817C57.8097 24.9905 57.5601 24.0721 57.2035 22.6262H57.1619C57.0192 23.2484 56.7815 24.1669 56.4665 25.3817L55.2481 29.1978H59.1827ZM75.5813 29.8911C75.5813 31.6807 75.0936 33.0969 74.1189 34.1398C73.2448 35.0642 72.1574 35.5264 70.8616 35.5264C69.4589 35.5264 68.4547 35.0286 67.8428 34.0331V39.5618H65.4948V28.2141C65.4948 27.0883 65.4653 25.9327 65.4057 24.7535H67.4736L67.605 26.4246H67.646C68.431 25.1683 69.6197 24.5343 71.2122 24.5343C72.4605 24.5343 73.5005 25.0261 74.3329 26.0098C75.1647 26.9935 75.5813 28.2912 75.5813 29.8911ZM73.1916 29.9799C73.1916 28.9549 72.9597 28.1075 72.4964 27.4438C71.9908 26.7505 71.3077 26.4068 70.4515 26.4068C69.8754 26.4068 69.3461 26.6023 68.8764 26.9816C68.4073 27.3668 68.0978 27.8705 67.9555 28.4867C67.8902 28.7178 67.8543 28.9607 67.8485 29.1978V30.9577C67.8485 31.7221 68.0863 32.368 68.556 32.9013C69.0251 33.4287 69.6377 33.6953 70.3919 33.6953C71.2775 33.6953 71.967 33.3517 72.4605 32.6762C72.9417 31.9888 73.1916 31.094 73.1916 29.9799ZM87.7414 29.8911C87.7414 31.6807 87.2544 33.0969 86.279 34.1398C85.4056 35.0642 84.3181 35.5264 83.0224 35.5264C81.6197 35.5264 80.6149 35.0286 80.0029 34.0331V39.5618H77.6549V28.2141C77.6549 27.0883 77.6255 25.9327 77.5659 24.7535H79.6344L79.7651 26.4246H79.8068C80.5912 25.1683 81.7799 24.5343 83.3729 24.5343C84.6213 24.5343 85.6613 25.0261 86.4931 26.0098C87.3197 26.9935 87.7414 28.2912 87.7414 29.8911ZM85.346 29.9799C85.346 28.9549 85.1147 28.1075 84.6507 27.4438C84.1458 26.7505 83.462 26.4068 82.6065 26.4068C82.0298 26.4068 81.5005 26.6023 81.025 26.9816C80.5559 27.3668 80.2464 27.8705 80.1041 28.4867C80.0324 28.777 79.9913 29.0141 79.9913 29.1978V30.9577C79.9913 31.7221 80.2291 32.368 80.6982 32.9013C81.1679 33.4287 81.7799 33.6953 82.5412 33.6953C83.4261 33.6953 84.1157 33.3517 84.6091 32.6762C85.1025 31.9888 85.346 31.094 85.346 29.9799ZM101.334 31.1947C101.334 32.4392 100.901 33.4524 100.033 34.2287C99.0819 35.082 97.7445 35.5086 96.0387 35.5086C94.4636 35.5086 93.1979 35.2064 92.2406 34.596L92.7814 32.6465C93.8099 33.2569 94.9448 33.5591 96.1752 33.5591C97.0608 33.5591 97.7503 33.3576 98.2437 32.9606C98.7372 32.5636 98.9864 32.0303 98.9864 31.3666C98.9864 30.774 98.7788 30.2763 98.3744 29.8674C97.9701 29.4644 97.2985 29.0852 96.354 28.7415C93.7862 27.7875 92.502 26.389 92.502 24.558C92.502 23.361 92.9538 22.3774 93.8631 21.6129C94.7667 20.8485 95.9675 20.4634 97.4651 20.4634C98.7967 20.4634 99.9079 20.6945 100.794 21.1566L100.205 23.0647C99.3728 22.6144 98.4398 22.3951 97.3876 22.3951C96.5616 22.3951 95.9079 22.5966 95.444 22.9995C95.0518 23.361 94.8557 23.7995 94.8557 24.321C94.8557 24.8957 95.0819 25.3757 95.5337 25.749C95.9259 26.0928 96.6327 26.472 97.6612 26.8749C98.9211 27.3845 99.8483 27.9712 100.443 28.6527C101.037 29.3341 101.334 30.1815 101.334 31.1947ZM109.12 26.5135H106.529V31.6273C106.529 32.931 106.986 33.5768 107.902 33.5768C108.324 33.5768 108.669 33.5413 108.948 33.4702L109.013 35.2479C108.55 35.4198 107.944 35.5086 107.189 35.5086C106.262 35.5086 105.536 35.2242 105.013 34.6613C104.49 34.0983 104.229 33.1502 104.229 31.8229V26.5135H102.69V24.7595H104.229V22.8277L106.535 22.1344V24.7595H109.126L109.12 26.5135ZM120.775 29.9385C120.775 31.5562 120.312 32.8895 119.385 33.9265C118.416 34.999 117.127 35.5323 115.516 35.5323C113.964 35.5323 112.728 35.0168 111.807 33.9976C110.886 32.9724 110.428 31.6747 110.428 30.1163C110.428 28.4808 110.904 27.1475 111.855 26.1046C112.806 25.0617 114.083 24.5461 115.694 24.5461C117.245 24.5461 118.494 25.0617 119.432 26.0868C120.324 27.0764 120.775 28.3623 120.775 29.9385ZM118.339 29.9918C118.339 29.026 118.131 28.1964 117.709 27.509C117.216 26.6734 116.514 26.2527 115.599 26.2527C114.66 26.2527 113.935 26.6734 113.447 27.509C113.025 28.2022 112.817 29.0437 112.817 30.0392C112.817 31.0051 113.025 31.8347 113.447 32.528C113.953 33.3635 114.666 33.7843 115.581 33.7843C116.479 33.7843 117.18 33.3576 117.691 32.5103C118.125 31.7932 118.339 30.9577 118.339 29.9918ZM128.413 26.8157C128.169 26.7742 127.92 26.7505 127.67 26.7505C126.844 26.7505 126.208 27.0586 125.757 27.6808C125.364 28.2319 125.168 28.9252 125.168 29.7607V35.2894H122.82V28.0719C122.82 26.9638 122.802 25.8616 122.755 24.7535H124.8L124.882 26.7683H124.948C125.198 26.0749 125.584 25.5179 126.125 25.0972C126.612 24.7298 127.212 24.5343 127.824 24.5343C128.045 24.5343 128.235 24.5521 128.413 24.5758V26.8157ZM138.916 29.5237C138.921 29.8793 138.891 30.2348 138.832 30.5844H131.783C131.807 31.6273 132.152 32.4213 132.806 32.9724C133.4 33.4643 134.167 33.7072 135.112 33.7072C136.158 33.7072 137.109 33.5413 137.965 33.2095L138.333 34.8331C137.334 35.2657 136.152 35.4849 134.791 35.4849C133.15 35.4849 131.866 35.0049 130.927 34.045C129.994 33.085 129.525 31.7932 129.525 30.1755C129.525 28.5874 129.958 27.266 130.832 26.2113C131.742 25.0854 132.978 24.5224 134.529 24.5224C136.051 24.5224 137.203 25.0854 137.988 26.2113C138.6 27.106 138.916 28.2082 138.916 29.5237ZM136.675 28.9193C136.693 28.226 136.538 27.6275 136.217 27.1179C135.813 26.4661 135.183 26.1402 134.345 26.1402C133.578 26.1402 132.954 26.4601 132.472 27.0942C132.08 27.5979 131.849 28.2082 131.777 28.9134L136.675 28.9193Z" fill="black"/>
<path d="M54.1545 15.5155C53.5007 15.5155 52.9361 15.4859 52.4665 15.4325V8.3632C53.1263 8.26244 53.792 8.2091 54.4576 8.21504C57.15 8.21504 58.3922 9.53645 58.3922 11.6875C58.3863 14.1703 56.9242 15.5155 54.1545 15.5155ZM54.5527 9.12169C54.1902 9.12169 53.8811 9.14539 53.6255 9.19867V14.5674C53.7622 14.5911 54.0297 14.597 54.4041 14.597C56.1693 14.597 57.1738 13.5956 57.1738 11.7231C57.1678 10.0461 56.2585 9.12169 54.5527 9.12169ZM62.2555 15.5688C60.7399 15.5688 59.7533 14.437 59.7533 12.9022C59.7533 11.3023 60.7578 10.1646 62.3388 10.1646C63.8365 10.1646 64.8412 11.2431 64.8412 12.8193C64.8412 14.437 63.8068 15.5688 62.2555 15.5688ZM62.2971 11.006C61.465 11.006 60.9301 11.7823 60.9301 12.8726C60.9301 13.9392 61.4769 14.7155 62.2853 14.7155C63.0996 14.7155 63.6404 13.8859 63.6404 12.8489C63.6463 11.7942 63.1114 11.006 62.2971 11.006ZM73.4947 10.2712L71.8722 15.4503H70.8142L70.1426 13.2044C69.976 12.6533 69.8338 12.0964 69.7267 11.5334H69.703C69.6197 12.0964 69.4589 12.6652 69.2865 13.2044L68.5733 15.4503H67.5038L65.9761 10.2712H67.1648L67.753 12.7304C67.8902 13.317 68.0087 13.8681 68.1042 14.3955H68.1279C68.2112 13.957 68.3535 13.4178 68.556 12.7423L69.2929 10.2712H70.2317L70.9392 12.6889C71.1116 13.2756 71.248 13.8504 71.3551 14.3955H71.3845C71.4621 13.8622 71.5749 13.2993 71.7357 12.6889L72.3656 10.2712H73.4947ZM79.48 15.4503H78.3271V12.4756C78.3271 11.5571 77.976 11.1008 77.2807 11.1008C76.5976 11.1008 76.1279 11.6875 76.1279 12.3689V15.4503H74.975V11.7526C74.975 11.2964 74.9629 10.8046 74.9334 10.2712H75.9497L76.0029 11.0712H76.0324C76.3419 10.5202 76.9718 10.1646 77.6793 10.1646C78.7667 10.1646 79.4857 10.9942 79.4857 12.3511L79.48 15.4503ZM82.6597 15.4503H81.5069V7.89502H82.6597V15.4503ZM86.8737 15.5688C85.3582 15.5688 84.3713 14.437 84.3713 12.9022C84.3713 11.3023 85.3761 10.1646 86.957 10.1646C88.4546 10.1646 89.4594 11.2431 89.4594 12.8193C89.4594 14.437 88.4194 15.5688 86.8737 15.5688ZM86.9154 11.006C86.0829 11.006 85.5485 11.7823 85.5485 12.8726C85.5485 13.9392 86.0951 14.7155 86.9032 14.7155C87.7177 14.7155 88.2585 13.8859 88.2585 12.8489C88.2585 11.7942 87.7298 11.006 86.9154 11.006ZM94.0118 15.4503L93.9285 14.8518H93.899C93.5485 15.3318 93.0313 15.5628 92.3777 15.5628C91.444 15.5628 90.7846 14.911 90.7846 14.04C90.7846 12.76 91.8958 12.1023 93.8214 12.1023V12.0075C93.8214 11.326 93.4594 10.9823 92.7462 10.9823C92.2348 10.9823 91.783 11.1127 91.3908 11.3675L91.1588 10.609C91.6407 10.3127 92.2406 10.1587 92.9422 10.1587C94.2969 10.1587 94.9865 10.8697 94.9865 12.2978V14.2059C94.9865 14.7274 95.0102 15.1362 95.064 15.4443L94.0118 15.4503ZM93.8516 12.8726C92.5674 12.8726 91.9259 13.1807 91.9259 13.9155C91.9259 14.4607 92.2585 14.7274 92.716 14.7274C93.3049 14.7274 93.8516 14.2829 93.8516 13.6726V12.8726ZM100.579 15.4503L100.526 14.6207H100.496C100.164 15.2488 99.6048 15.5688 98.8262 15.5688C97.5721 15.5688 96.6449 14.4726 96.6449 12.9259C96.6449 11.3082 97.608 10.1646 98.9211 10.1646C99.617 10.1646 100.11 10.3957 100.383 10.8698H100.407V7.89502H101.56V14.0518C101.56 14.5496 101.572 15.0236 101.602 15.4443H100.579V15.4503ZM100.413 12.4045C100.413 11.6815 99.9316 11.0594 99.1947 11.0594C98.3386 11.0594 97.8156 11.8179 97.8156 12.8785C97.8156 13.9215 98.3565 14.6385 99.171 14.6385C99.8957 14.6385 100.413 14.0103 100.413 13.2637V12.4045ZM108.895 15.5688C107.379 15.5688 106.392 14.437 106.392 12.9022C106.392 11.3023 107.396 10.1646 108.978 10.1646C110.476 10.1646 111.48 11.2431 111.48 12.8193C111.48 14.437 110.446 15.5688 108.895 15.5688ZM108.936 11.006C108.104 11.006 107.569 11.7823 107.569 12.8726C107.569 13.9392 108.116 14.7155 108.924 14.7155C109.739 14.7155 110.28 13.8859 110.28 12.8489C110.285 11.7942 109.75 11.006 108.936 11.006ZM117.691 15.4503H116.538V12.4756C116.538 11.5571 116.187 11.1008 115.492 11.1008C114.808 11.1008 114.339 11.6875 114.339 12.3689V15.4503H113.186V11.7526C113.186 11.2964 113.174 10.8046 113.144 10.2712H114.16L114.214 11.0712H114.244C114.553 10.5202 115.183 10.1646 115.89 10.1646C116.978 10.1646 117.697 10.9942 117.697 12.3511V15.4503H117.691ZM125.453 11.1364H124.181V13.6489C124.181 14.2888 124.401 14.6088 124.853 14.6088C125.055 14.6088 125.227 14.5851 125.364 14.5555L125.394 15.4266C125.168 15.5096 124.871 15.557 124.497 15.557C123.587 15.557 123.04 15.0592 123.04 13.7437V11.1305H122.279V10.2653H123.04V9.31719L124.176 8.97353V10.2653H125.448L125.453 11.1364ZM131.569 15.4503H130.416V12.4993C130.416 11.5749 130.065 11.1068 129.37 11.1068C128.77 11.1068 128.217 11.5097 128.217 12.3334V15.4562H127.064V7.89502H128.217V11.006H128.241C128.604 10.4431 129.132 10.1646 129.804 10.1646C130.904 10.1646 131.575 11.0178 131.575 12.3689L131.569 15.4503ZM137.828 13.1393H134.363C134.386 14.117 135.034 14.674 135.997 14.674C136.508 14.674 136.984 14.5911 137.4 14.431L137.578 15.231C137.085 15.4443 136.508 15.551 135.837 15.551C134.214 15.551 133.252 14.5259 133.252 12.9437C133.252 11.3556 134.238 10.1646 135.706 10.1646C137.031 10.1646 137.863 11.1423 137.863 12.6238C137.875 12.7897 137.863 12.9674 137.828 13.1393ZM136.77 12.3156C136.77 11.5156 136.366 10.9527 135.629 10.9527C134.963 10.9527 134.44 11.5275 134.368 12.3156H136.77Z" fill="black"/>
</svg>
