<svg width="158" height="47" viewBox="0 0 158 47" fill="none" xmlns="http://www.w3.org/2000/svg">
<rect x="0.5" y="0.5" width="157" height="46" rx="12" stroke="white" stroke-opacity="0.5"/>
<path d="M37.5424 22.425C37.5127 18.8873 40.4488 17.163 40.5855 17.0859C38.9213 14.6682 36.3418 14.3364 35.4324 14.3127C33.2631 14.0876 31.165 15.6045 30.0595 15.6045C28.9362 15.6045 27.2363 14.3364 25.3998 14.372C23.0401 14.4075 20.8351 15.7705 19.6286 17.88C17.1323 22.188 18.9926 28.5165 21.3879 32.0009C22.5825 33.7075 23.9793 35.6096 25.8099 35.5444C27.5988 35.4733 28.2705 34.4067 30.428 34.4067C32.5677 34.4067 33.1977 35.5444 35.064 35.5029C36.9837 35.4733 38.1962 33.7904 39.3492 32.072C40.7341 30.1165 41.2869 28.1906 41.3106 28.0958C41.2631 28.0662 37.5781 26.6618 37.5424 22.425ZM34.0179 12.0195C34.9807 10.8166 35.6404 9.18703 35.4562 7.52783C34.0655 7.58706 32.318 8.48776 31.3195 9.66108C30.4339 10.6981 29.6375 12.3928 29.8455 13.9868C31.4027 14.0994 33.0134 13.1987 34.0179 12.0195Z" fill="white"/>
<path d="M63.468 35.2896H60.9658L59.5928 30.9994H54.832L53.5244 35.2896H51.0876L55.8068 20.6769H58.7191L63.468 35.2896ZM59.1827 29.198L57.9405 25.3819C57.8098 24.9908 57.5601 24.0723 57.2035 22.6264H57.1619C57.0192 23.2487 56.7815 24.1671 56.4665 25.3819L55.2481 29.198H59.1827ZM75.5813 29.8913C75.5813 31.6809 75.0936 33.0971 74.1189 34.14C73.2448 35.0645 72.1574 35.5266 70.8616 35.5266C69.4589 35.5266 68.4547 35.0289 67.8428 34.0333V39.562H65.4948V28.2143C65.4948 27.0885 65.4653 25.9329 65.4057 24.7537H67.4736L67.605 26.4248H67.646C68.431 25.1686 69.6197 24.5345 71.2122 24.5345C72.4605 24.5345 73.5005 25.0264 74.3329 26.01C75.1647 26.9937 75.5813 28.2914 75.5813 29.8913ZM73.1917 29.9802C73.1917 28.9551 72.9597 28.1077 72.4964 27.444C71.9908 26.7507 71.3077 26.407 70.4515 26.407C69.8754 26.407 69.3461 26.6026 68.8764 26.9818C68.4073 27.367 68.0978 27.8707 67.9555 28.4869C67.8902 28.7181 67.8543 28.961 67.8485 29.198V30.9579C67.8485 31.7224 68.0863 32.3682 68.556 32.9016C69.0251 33.429 69.6377 33.6956 70.3919 33.6956C71.2775 33.6956 71.9671 33.3519 72.4605 32.6764C72.9417 31.989 73.1917 31.0942 73.1917 29.9802ZM87.7414 29.8913C87.7414 31.6809 87.2544 33.0971 86.279 34.14C85.4056 35.0645 84.3181 35.5266 83.0224 35.5266C81.6197 35.5266 80.6149 35.0289 80.0029 34.0333V39.562H77.6549V28.2143C77.6549 27.0885 77.6255 25.9329 77.5659 24.7537H79.6344L79.7651 26.4248H79.8068C80.5912 25.1686 81.7799 24.5345 83.3729 24.5345C84.6213 24.5345 85.6613 25.0264 86.4931 26.01C87.3197 26.9937 87.7414 28.2914 87.7414 29.8913ZM85.346 29.9802C85.346 28.9551 85.1147 28.1077 84.6507 27.444C84.1458 26.7507 83.462 26.407 82.6065 26.407C82.0298 26.407 81.5005 26.6026 81.025 26.9818C80.5559 27.367 80.2464 27.8707 80.1041 28.4869C80.0324 28.7773 79.9914 29.0143 79.9914 29.198V30.9579C79.9914 31.7224 80.2291 32.3682 80.6982 32.9016C81.1679 33.429 81.7799 33.6956 82.5412 33.6956C83.4261 33.6956 84.1156 33.3519 84.6091 32.6764C85.1025 31.989 85.346 31.0942 85.346 29.9802ZM101.334 31.195C101.334 32.4394 100.901 33.4527 100.033 34.2289C99.0819 35.0822 97.7445 35.5089 96.0387 35.5089C94.4636 35.5089 93.1979 35.2067 92.2406 34.5963L92.7814 32.6468C93.8099 33.2571 94.9448 33.5593 96.1752 33.5593C97.0608 33.5593 97.7503 33.3579 98.2437 32.9608C98.7371 32.5638 98.9864 32.0305 98.9864 31.3668C98.9864 30.7743 98.7788 30.2765 98.3744 29.8676C97.9701 29.4647 97.2985 29.0854 96.354 28.7418C93.7862 27.7877 92.502 26.3892 92.502 24.5582C92.502 23.3612 92.9538 22.3776 93.8631 21.6132C94.7667 20.8487 95.9675 20.4636 97.4651 20.4636C98.7968 20.4636 99.9079 20.6947 100.794 21.1569L100.205 23.065C99.3728 22.6146 98.4398 22.3954 97.3876 22.3954C96.5616 22.3954 95.9079 22.5968 95.444 22.9997C95.0518 23.3612 94.8557 23.7998 94.8557 24.3212C94.8557 24.896 95.0819 25.376 95.5337 25.7493C95.9259 26.093 96.6327 26.4722 97.6612 26.8752C98.9211 27.3848 99.8483 27.9714 100.443 28.6529C101.037 29.3343 101.334 30.1817 101.334 31.195ZM109.12 26.5137H106.529V31.6276C106.529 32.9312 106.986 33.5771 107.902 33.5771C108.324 33.5771 108.669 33.5415 108.948 33.4704L109.013 35.2481C108.55 35.42 107.944 35.5089 107.189 35.5089C106.262 35.5089 105.536 35.2244 105.013 34.6615C104.49 34.0985 104.229 33.1504 104.229 31.8231V26.5137H102.69V24.7597H104.229V22.8279L106.535 22.1346V24.7597H109.126L109.12 26.5137ZM120.775 29.9387C120.775 31.5564 120.312 32.8897 119.385 33.9267C118.416 34.9992 117.127 35.5326 115.516 35.5326C113.964 35.5326 112.728 35.017 111.807 33.9978C110.886 32.9727 110.428 31.675 110.428 30.1165C110.428 28.481 110.904 27.1477 111.855 26.1048C112.806 25.0619 114.083 24.5464 115.694 24.5464C117.245 24.5464 118.494 25.0619 119.432 26.087C120.324 27.0766 120.775 28.3625 120.775 29.9387ZM118.339 29.9921C118.339 29.0262 118.131 28.1966 117.709 27.5092C117.216 26.6737 116.514 26.253 115.599 26.253C114.66 26.253 113.935 26.6737 113.447 27.5092C113.025 28.2025 112.817 29.0439 112.817 30.0395C112.817 31.0053 113.025 31.8349 113.447 32.5283C113.953 33.3637 114.666 33.7845 115.581 33.7845C116.479 33.7845 117.18 33.3579 117.691 32.5105C118.125 31.7935 118.339 30.9579 118.339 29.9921ZM128.413 26.8159C128.169 26.7744 127.92 26.7507 127.67 26.7507C126.844 26.7507 126.208 27.0589 125.757 27.6811C125.364 28.2321 125.168 28.9254 125.168 29.761V35.2896H122.82V28.0721C122.82 26.964 122.802 25.8618 122.755 24.7537H124.8L124.882 26.7685H124.948C125.198 26.0752 125.584 25.5182 126.125 25.0975C126.612 24.73 127.212 24.5345 127.824 24.5345C128.045 24.5345 128.235 24.5523 128.413 24.576V26.8159ZM138.916 29.5239C138.921 29.8795 138.891 30.235 138.832 30.5846H131.783C131.807 31.6276 132.152 32.4216 132.806 32.9727C133.4 33.4645 134.167 33.7075 135.112 33.7075C136.158 33.7075 137.109 33.5415 137.965 33.2097L138.333 34.8333C137.334 35.2659 136.152 35.4852 134.791 35.4852C133.15 35.4852 131.866 35.0052 130.927 34.0452C129.994 33.0852 129.525 31.7935 129.525 30.1757C129.525 28.5877 129.958 27.2662 130.832 26.2115C131.742 25.0856 132.978 24.5227 134.529 24.5227C136.051 24.5227 137.203 25.0856 137.988 26.2115C138.6 27.1063 138.916 28.2084 138.916 29.5239ZM136.675 28.9195C136.693 28.2262 136.538 27.6277 136.217 27.1181C135.813 26.4663 135.183 26.1404 134.345 26.1404C133.578 26.1404 132.954 26.4603 132.472 27.0944C132.08 27.5981 131.849 28.2084 131.777 28.9136L136.675 28.9195Z" fill="white"/>
<path d="M54.1545 15.5157C53.5007 15.5157 52.9361 15.486 52.4665 15.4327V8.36337C53.1263 8.26262 53.792 8.20927 54.4576 8.21521C57.15 8.21521 58.3923 9.53663 58.3923 11.6876C58.3863 14.1705 56.9242 15.5157 54.1545 15.5157ZM54.5527 9.12186C54.1902 9.12186 53.8811 9.14556 53.6255 9.19885V14.5676C53.7622 14.5913 54.0297 14.5971 54.4041 14.5971C56.1693 14.5971 57.1738 13.5957 57.1738 11.7232C57.1678 10.0463 56.2585 9.12186 54.5527 9.12186ZM62.2555 15.569C60.7399 15.569 59.7533 14.4372 59.7533 12.9024C59.7533 11.3025 60.7578 10.1648 62.3388 10.1648C63.8365 10.1648 64.8412 11.2432 64.8412 12.8194C64.8412 14.4372 63.8068 15.569 62.2555 15.569ZM62.2971 11.0062C61.465 11.0062 60.9301 11.7824 60.9301 12.8728C60.9301 13.9394 61.4769 14.7157 62.2853 14.7157C63.0996 14.7157 63.6404 13.8861 63.6404 12.8491C63.6463 11.7943 63.1114 11.0062 62.2971 11.0062ZM73.4948 10.2714L71.8722 15.4504H70.8142L70.1426 13.2046C69.976 12.6535 69.8338 12.0965 69.7267 11.5336H69.703C69.6197 12.0965 69.4589 12.6654 69.2865 13.2046L68.5733 15.4504H67.5038L65.9761 10.2714H67.1648L67.753 12.7306C67.8902 13.3172 68.0087 13.8683 68.1042 14.3957H68.1279C68.2112 13.9572 68.3535 13.4179 68.556 12.7424L69.2929 10.2714H70.2317L70.9392 12.6891C71.1116 13.2757 71.248 13.8505 71.3551 14.3957H71.3845C71.4621 13.8624 71.5749 13.2994 71.7357 12.6891L72.3656 10.2714H73.4948ZM79.48 15.4504H78.3271V12.4758C78.3271 11.5573 77.976 11.101 77.2807 11.101C76.5976 11.101 76.1279 11.6876 76.1279 12.3691V15.4504H74.975V11.7528C74.975 11.2966 74.9629 10.8048 74.9334 10.2714H75.9497L76.0029 11.0714H76.0324C76.3419 10.5203 76.9718 10.1648 77.6793 10.1648C78.7667 10.1648 79.4857 10.9944 79.4857 12.3513L79.48 15.4504ZM82.6597 15.4504H81.5069V7.89519H82.6597V15.4504ZM86.8737 15.569C85.3582 15.569 84.3713 14.4372 84.3713 12.9024C84.3713 11.3025 85.3761 10.1648 86.957 10.1648C88.4546 10.1648 89.4594 11.2432 89.4594 12.8194C89.4594 14.4372 88.4194 15.569 86.8737 15.569ZM86.9154 11.0062C86.0829 11.0062 85.5485 11.7824 85.5485 12.8728C85.5485 13.9394 86.0951 14.7157 86.9032 14.7157C87.7177 14.7157 88.2585 13.8861 88.2585 12.8491C88.2585 11.7943 87.7298 11.0062 86.9154 11.0062ZM94.0118 15.4504L93.9285 14.8519H93.899C93.5485 15.3319 93.0313 15.563 92.3777 15.563C91.444 15.563 90.7846 14.9112 90.7846 14.0402C90.7846 12.7602 91.8958 12.1025 93.8214 12.1025V12.0077C93.8214 11.3262 93.4594 10.9825 92.7462 10.9825C92.2348 10.9825 91.783 11.1129 91.3908 11.3677L91.1589 10.6092C91.6407 10.3129 92.2406 10.1588 92.9422 10.1588C94.2969 10.1588 94.9865 10.8699 94.9865 12.298V14.2061C94.9865 14.7275 95.0102 15.1364 95.064 15.4445L94.0118 15.4504ZM93.8516 12.8728C92.5674 12.8728 91.9259 13.1809 91.9259 13.9157C91.9259 14.4609 92.2585 14.7275 92.716 14.7275C93.305 14.7275 93.8516 14.2831 93.8516 13.6727V12.8728ZM100.579 15.4504L100.526 14.6208H100.496C100.164 15.249 99.6048 15.569 98.8262 15.569C97.5721 15.569 96.6449 14.4727 96.6449 12.9261C96.6449 11.3084 97.608 10.1648 98.9211 10.1648C99.617 10.1648 100.11 10.3959 100.383 10.8699H100.407V7.89519H101.56V14.052C101.56 14.5497 101.572 15.0238 101.602 15.4445H100.579V15.4504ZM100.413 12.4047C100.413 11.6817 99.9316 11.0595 99.1947 11.0595C98.3386 11.0595 97.8157 11.818 97.8157 12.8787C97.8157 13.9216 98.3565 14.6387 99.171 14.6387C99.8957 14.6387 100.413 14.0105 100.413 13.2639V12.4047ZM108.895 15.569C107.379 15.569 106.392 14.4372 106.392 12.9024C106.392 11.3025 107.397 10.1648 108.978 10.1648C110.476 10.1648 111.48 11.2432 111.48 12.8194C111.48 14.4372 110.446 15.569 108.895 15.569ZM108.936 11.0062C108.104 11.0062 107.569 11.7824 107.569 12.8728C107.569 13.9394 108.116 14.7157 108.924 14.7157C109.739 14.7157 110.28 13.8861 110.28 12.8491C110.285 11.7943 109.75 11.0062 108.936 11.0062ZM116.538 15.4504V12.4758C116.538 11.5573 116.187 11.101 115.492 11.101C114.808 11.101 114.339 11.6876 114.339 12.3691V15.4504H113.186V11.7528C113.186 11.2966 113.174 10.8048 113.144 10.2714H114.16L114.214 11.0714H114.244C114.553 10.5203 115.183 10.1648 115.89 10.1648C116.978 10.1648 117.697 10.9944 117.697 12.3513V15.4504H116.538ZM125.453 11.1365H124.181V13.649C124.181 14.289 124.401 14.609 124.853 14.609C125.055 14.609 125.227 14.5853 125.364 14.5557L125.394 15.4267C125.168 15.5097 124.871 15.5571 124.497 15.5571C123.587 15.5571 123.04 15.0594 123.04 13.7438V11.1307H122.279V10.2655H123.04V9.31736L124.176 8.9737V10.2655H125.448L125.453 11.1365ZM131.569 15.4504H130.416V12.4995C130.416 11.5751 130.065 11.107 129.37 11.107C128.77 11.107 128.217 11.5099 128.217 12.3336V15.4564H127.064V7.89519H128.217V11.0062H128.241C128.604 10.4433 129.132 10.1648 129.804 10.1648C130.904 10.1648 131.575 11.018 131.575 12.3691L131.569 15.4504ZM137.828 13.1394H134.363C134.386 14.1172 135.034 14.6742 135.997 14.6742C136.508 14.6742 136.984 14.5913 137.4 14.4312L137.578 15.2312C137.085 15.4445 136.508 15.5512 135.837 15.5512C134.214 15.5512 133.252 14.526 133.252 12.9439C133.252 11.3558 134.238 10.1648 135.706 10.1648C137.031 10.1648 137.863 11.1425 137.863 12.6239C137.875 12.7898 137.863 12.9676 137.828 13.1394ZM136.77 12.3158C136.77 11.5158 136.366 10.9529 135.629 10.9529C134.963 10.9529 134.44 11.5277 134.368 12.3158H136.77Z" fill="white"/>
</svg>
