<svg width="158" height="47" viewBox="0 0 158 47" fill="none" xmlns="http://www.w3.org/2000/svg">
<rect x="0.5" y="0.5" width="157" height="46" rx="12" stroke="white" stroke-opacity="0.5"/>
<path d="M56.6461 12.5467C56.6461 13.4269 56.4254 14.1972 55.8736 14.7473C55.2114 15.4075 54.4389 15.7376 53.4456 15.7376C52.4523 15.7376 51.6798 15.4075 51.0176 14.7473C50.3554 14.0871 50.0243 13.3169 50.0243 12.3266C50.0243 11.3364 50.3554 10.5662 51.0176 9.90596C51.6798 9.24579 52.4523 8.91568 53.4456 8.91568C53.887 8.91568 54.3285 9.0257 54.7699 9.24579C55.2114 9.46583 55.5425 9.68593 55.7632 10.016L55.2114 10.5661C54.7699 10.016 54.2181 9.79594 53.4456 9.79594C52.7834 9.79594 52.1212 10.016 51.6798 10.5661C51.128 11.0063 50.9073 11.6665 50.9073 12.4367C50.9073 13.2069 51.128 13.8671 51.6798 14.3072C52.2316 14.7473 52.7834 15.0774 53.4456 15.0774C54.2181 15.0774 54.7699 14.8573 55.3218 14.3072C55.6528 13.9771 55.8736 13.537 55.8736 12.9868H53.4456V12.2166H56.6461C56.6461 12.2166 56.6461 12.3266 56.6461 12.5467Z" fill="white"/>
<path d="M61.7233 9.79594H58.7435V11.8865H61.5025V12.6568H58.7435V14.7473H61.7233V15.5175H57.8606V8.91568H61.7233V9.79594Z" fill="white"/>
<path d="M65.3654 15.5175H64.4822V9.68593H62.606V8.91568H67.241V9.68593H65.3654V15.5175Z" fill="white"/>
<path d="M70.4419 15.5175V8.91568H71.3243V15.5175H70.4419Z" fill="white"/>
<path d="M75.0769 15.5175H74.1945V9.68593H72.3182V8.91568H76.843V9.68593H74.9667V15.5175H75.0769Z" fill="white"/>
<path d="M85.5613 14.7473C84.8994 15.4075 84.1265 15.7376 83.1333 15.7376C82.14 15.7376 81.3678 15.4075 80.7052 14.7473C80.0433 14.0871 79.712 13.3169 79.712 12.3266C79.712 11.3364 80.0433 10.5662 80.7052 9.90596C81.3678 9.24579 82.14 8.91568 83.1333 8.91568C84.1265 8.91568 84.8994 9.24579 85.5613 9.90596C86.2233 10.5662 86.5546 11.3364 86.5546 12.3266C86.5546 13.2069 86.2233 14.0871 85.5613 14.7473ZM81.3678 14.1972C81.8093 14.6373 82.4713 14.9674 83.1333 14.9674C83.7959 14.9674 84.4578 14.7473 84.8994 14.1972C85.3409 13.7571 85.6715 13.0969 85.6715 12.3266C85.6715 11.5564 85.4511 10.8962 84.8994 10.4561C84.4578 10.016 83.7959 9.68593 83.1333 9.68593C82.4713 9.68593 81.8093 9.90596 81.3678 10.4561C80.9263 10.8962 80.595 11.5564 80.595 12.3266C80.595 12.9868 80.8161 13.647 81.3678 14.1972Z" fill="white"/>
<path d="M87.7689 15.5175V8.91568H88.7622L91.9624 14.0871V8.91568H92.8455V15.5175H91.9624L88.5411 10.1261V15.5175H87.7689Z" fill="white"/>
<path d="M79.4909 25.2002C76.8424 25.2002 74.7456 27.1807 74.7456 29.9315C74.7456 32.5723 76.8424 34.6628 79.4909 34.6628C82.1394 34.6628 84.2368 32.6823 84.2368 29.9315C84.2368 27.1807 82.1394 25.2002 79.4909 25.2002ZM79.4909 32.6823C78.0561 32.6823 76.8424 31.472 76.8424 29.8215C76.8424 28.171 78.0561 26.9607 79.4909 26.9607C80.9257 26.9607 82.1394 28.061 82.1394 29.8215C82.1394 31.582 80.9257 32.6823 79.4909 32.6823ZM69.2269 25.2002C66.5784 25.2002 64.4816 27.1807 64.4816 29.9315C64.4816 32.5723 66.5784 34.6628 69.2269 34.6628C71.876 34.6628 73.9728 32.6823 73.9728 29.9315C73.9728 27.1807 71.876 25.2002 69.2269 25.2002ZM69.2269 32.6823C67.7928 32.6823 66.5784 31.472 66.5784 29.8215C66.5784 28.171 67.7928 26.9607 69.2269 26.9607C70.6617 26.9607 71.876 28.061 71.876 29.8215C71.876 31.582 70.6617 32.6823 69.2269 32.6823ZM56.9769 26.6306V28.6112H61.7225C61.6122 29.7115 61.1707 30.5917 60.6189 31.1419C59.9567 31.802 58.8531 32.5723 56.9769 32.5723C53.9971 32.5723 51.7899 30.2616 51.7899 27.2908C51.7899 24.32 54.1075 22.0093 56.9769 22.0093C58.522 22.0093 59.736 22.6695 60.6189 23.4397L62.0536 22.0093C60.8396 20.909 59.2945 20.0288 57.0873 20.0288C53.1142 20.0288 49.693 23.3297 49.693 27.2908C49.693 31.2519 53.1142 34.5528 57.0873 34.5528C59.2945 34.5528 60.8396 33.8927 62.164 32.4622C63.4883 31.1419 63.9297 29.2713 63.9297 27.841C63.9297 27.4008 63.9297 26.9607 63.8194 26.6306H56.9769ZM107.082 28.171C106.64 27.0707 105.536 25.2002 103.109 25.2002C100.681 25.2002 98.6942 27.0707 98.6942 29.9315C98.6942 32.5723 100.681 34.6628 103.329 34.6628C105.426 34.6628 106.751 33.3425 107.192 32.5723L105.647 31.472C105.095 32.2422 104.433 32.7923 103.329 32.7923C102.226 32.7923 101.563 32.3522 101.011 31.362L107.302 28.7212L107.082 28.171ZM100.681 29.7115C100.681 27.951 102.116 26.9607 103.109 26.9607C103.881 26.9607 104.654 27.4008 104.874 27.951L100.681 29.7115ZM95.4933 34.2227H97.5901V20.4689H95.4933V34.2227ZM92.1829 26.1905C91.6305 25.6403 90.7481 25.0902 89.644 25.0902C87.3268 25.0902 85.1192 27.1807 85.1192 29.8215C85.1192 32.4622 87.2165 34.4428 89.644 34.4428C90.7481 34.4428 91.6305 33.8927 92.072 33.3425H92.1829V34.0027C92.1829 35.7631 91.1896 36.7534 89.644 36.7534C88.4303 36.7534 87.5472 35.8732 87.3268 35.103L85.5607 35.8732C86.1124 37.0835 87.437 38.6239 89.7548 38.6239C92.1829 38.6239 94.1694 37.1935 94.1694 33.7826V25.4203H92.1829V26.1905ZM89.7548 32.6823C88.32 32.6823 87.1057 31.472 87.1057 29.8215C87.1057 28.171 88.32 26.9607 89.7548 26.9607C91.1896 26.9607 92.2931 28.171 92.2931 29.8215C92.2931 31.472 91.1896 32.6823 89.7548 32.6823ZM116.683 20.4689H111.717V34.2227H113.814V29.0513H116.683C119 29.0513 121.208 27.4008 121.208 24.7601C121.208 22.1193 119 20.4689 116.683 20.4689ZM116.793 27.1807H113.814V22.4495H116.793C118.338 22.4495 119.221 23.7698 119.221 24.7601C119.111 25.8604 118.228 27.1807 116.793 27.1807ZM129.485 25.2002C127.94 25.2002 126.395 25.8604 125.843 27.2908L127.719 28.061C128.161 27.2908 128.823 27.0707 129.596 27.0707C130.699 27.0707 131.692 27.731 131.803 28.8313V28.9413C131.472 28.7212 130.589 28.3911 129.706 28.3911C127.719 28.3911 125.733 29.4914 125.733 31.472C125.733 33.3425 127.388 34.5528 129.154 34.5528C130.589 34.5528 131.251 33.8927 131.803 33.2325H131.913V34.3328H133.899V29.0513C133.679 26.5206 131.803 25.2002 129.485 25.2002ZM129.264 32.6823C128.602 32.6823 127.609 32.3522 127.609 31.472C127.609 30.3717 128.823 30.0416 129.816 30.0416C130.699 30.0416 131.141 30.2617 131.692 30.4817C131.472 31.8021 130.368 32.6823 129.264 32.6823ZM140.852 25.4203L138.535 31.362H138.425L135.997 25.4203H133.789L137.432 33.7826L135.334 38.4039H137.432L143.06 25.4203H140.852ZM122.311 34.2227H124.408V20.4689H122.311V34.2227Z" fill="white"/>
<path d="M15.2601 36.9735C14.8187 36.7535 14.598 36.2033 14.598 35.6532C14.598 35.5431 14.598 35.3231 14.598 35.213C14.598 27.0708 14.598 18.9285 14.598 10.8962C14.598 10.4561 14.7083 10.1261 14.8187 9.68592C14.9291 9.46583 15.1498 9.24579 15.3705 9.02576C20.1161 13.7571 24.7513 18.4883 29.3865 23.2197C24.641 27.6209 20.0057 32.2422 15.2601 36.9735Z" fill="white"/>
<path d="M34.0216 18.3783C32.6972 19.6987 31.2625 21.019 29.9381 22.4495C25.5236 17.9382 20.9988 13.4269 16.5842 8.91568C16.5842 8.91568 16.5842 8.80566 16.6946 8.80566C22.4335 11.9965 28.1723 15.1875 34.0216 18.3783Z" fill="white"/>
<path d="M16.5842 36.9735C20.9988 32.5723 25.5236 28.1711 29.9381 23.7698C31.1521 24.9802 32.4765 26.1905 33.9112 27.5109C28.1723 30.7018 22.4335 33.8927 16.6946 36.9735H16.5842Z" fill="white"/>
<path d="M34.6842 27.0707C33.2494 25.7504 31.9251 24.43 30.4904 23.1097C31.9251 21.6793 33.3598 20.2489 34.7945 18.8185C35.236 19.0385 35.6774 19.2586 36.1189 19.5886C37.2225 20.2489 38.4365 20.799 39.5401 21.4592C39.8712 21.5692 40.0919 21.7893 40.3126 22.1193C40.7541 22.6695 40.7541 23.2197 40.3126 23.7698C40.0919 23.9899 39.8712 24.21 39.5401 24.32C37.9951 25.3103 36.3396 26.1905 34.6842 27.0707Z" fill="white"/>
</svg>
