<svg width="80" height="30" viewBox="0 0 80 30" fill="none" xmlns="http://www.w3.org/2000/svg">
<g clip-path="url(#clip0_1170_759)">
<path d="M55.3424 8.50312C56.7022 8.50312 58.0337 8.70453 59.3121 9.09345L58.6178 13.6696C57.8613 13.3527 57.0039 13.1653 56.1038 13.1269C55.9603 13.1173 55.8168 13.1174 55.6733 13.1174C51.4936 13.1174 49.3054 15.7532 49.3054 18.3557C49.3054 19.6233 49.7745 20.8475 50.9667 21.7358C52.0392 22.5376 53.6047 22.8454 55.1272 22.8454C55.3617 22.8454 55.601 22.8309 55.8259 22.8117C56.3286 22.7685 56.822 22.677 57.3007 22.5378L56.7022 26.6188C55.9266 26.8925 54.5193 27.2772 52.6714 27.2773C52.3411 27.2773 52.0009 27.2625 51.661 27.2385C48.8171 27.032 46.4759 25.8653 45.0778 23.9448C43.7085 22.0626 43.3348 19.6042 44.0003 16.8242C45.4288 10.8704 50.69 8.63836 54.9393 8.50459L55.3424 8.50312Z" fill="#2E3138"/>
<path d="M38.5374 27.0129H33.2566L35.9615 8.83418H41.2423L38.5374 27.0129Z" fill="#2E3138"/>
<path fill-rule="evenodd" clip-rule="evenodd" d="M75.5908 8.83418C77.0125 8.83423 78.1182 9.23274 78.8794 10.02C79.6503 10.817 80.0384 11.9891 79.9953 13.4103C79.9377 15.3068 78.9134 16.4881 78.4777 16.9106L78.02 17.3493L78.4438 17.8181C78.9657 18.4038 79.5787 19.4358 79.531 21.0297C79.4208 24.6644 76.8162 27.0128 72.8903 27.0129H61.5666L64.2723 8.83418H75.5908ZM67.4127 22.9414H72.0088C72.2195 22.9414 72.9477 22.9028 73.4409 22.3986C73.7281 22.1057 73.8713 21.7115 73.8617 21.289C73.8665 21.1874 73.8665 20.6695 73.4696 20.2475C73.168 19.9306 72.7463 19.767 72.2196 19.767H67.8866L67.4127 22.9414ZM68.4468 16.0266H72.9906C73.1881 16.0266 73.8404 15.9931 74.3275 15.5732L74.4175 15.4846C74.6999 15.1869 74.8486 14.7928 74.839 14.3654C74.8438 14.226 74.8239 13.7366 74.441 13.3334C74.1395 13.0167 73.7234 12.853 73.1969 12.853H68.9163L68.4468 16.0266Z" fill="#2E3138"/>
<path d="M16.4129 27.896C13.2673 29.4085 10.0206 30.3977 5.03171 29.9944L5.03687 29.99C6.53546 29.7259 8.64722 29.3079 11.1608 28.3428C13.3104 27.517 15.1007 26.4844 16.8529 25.3802L16.4129 27.896ZM23.3026 8.05179C6.85162 12.2339 3.0598 21.0496 2.45653 23.4744C2.36559 23.8441 2.30765 24.2187 2.30765 24.5979C2.2982 28.2133 5.11846 28.501 5.97068 28.501C6.04708 28.501 6.0569 28.4771 6.04733 28.4483C6.04242 28.4298 5.98443 28.4115 5.98026 28.4102C2.38938 27.0754 4.27552 22.9507 4.27552 22.9507C7.22483 16.0173 18.3901 11.8787 25.4666 10.5823L25.6869 9.21854L30.3074 13.1509H30.3169L24.49 17.1697L24.7052 15.6953C11.6823 17.131 7.29217 22.3844 6.05691 24.1226C4.49612 26.3169 5.6979 27.8384 6.17189 28.1553C6.2532 28.2128 6.24299 28.1553 6.21906 28.1121C5.74272 27.2799 6.71909 26.0099 6.72687 25.9998C8.2111 24.0264 12.597 20.5357 19.5106 19.4842L19.0028 22.9075C15.8287 23.4357 13.8083 24.4055 11.6252 25.553C9.30785 26.7726 7.35893 28.3478 6.21464 28.9624C4.51495 29.8795 1.7137 29.3944 0.660392 27.3826C-0.718422 24.7514 -0.062474 20.8472 3.82519 15.2727C8.39282 8.73311 17.9881 5.30059 23.8724 4.11942L23.3026 8.05179ZM19.1465 2.91385C10.629 5.77077 5.51527 10.8845 4.39491 14.1111H4.39049C5.52042 10.582 9.48493 3.54307 19.5681 0.085968L19.1465 2.91385Z" fill="url(#paint0_linear_1170_759)"/>
</g>
<defs>
<linearGradient id="paint0_linear_1170_759" x1="5.53037" y1="31.1761" x2="17.2083" y2="26.2308" gradientUnits="userSpaceOnUse">
<stop stop-color="#ED7300"/>
<stop offset="0.02" stop-color="#ED7300"/>
<stop offset="0.11" stop-color="#EB6302"/>
<stop offset="0.39" stop-color="#E83809"/>
<stop offset="0.64" stop-color="#E6190E"/>
<stop offset="0.85" stop-color="#E50611"/>
<stop offset="1" stop-color="#E50013"/>
</linearGradient>
<clipPath id="clip0_1170_759">
<rect width="80" height="30" fill="white"/>
</clipPath>
</defs>
</svg>
