<svg preserveAspectRatio="none" width="100%" height="100%" overflow="visible" style="display: block;" viewBox="0 0 56 56" fill="none" xmlns="http://www.w3.org/2000/svg">
<g id="icon-globe">
<rect width="56" height="56" rx="16" fill="var(--fill-0, #ED6A6A)"/>
<g id="Vector">
<path d="M23.2266 24.0115V31.9947L32.7924 31.9467L32.7684 24.0075L23.2266 24.0115Z" fill="var(--fill-0, white)"/>
<path d="M43.4291 23.9995L35.8891 24.0195C36.0249 26.7778 36.0249 29.2324 35.8891 31.9907L43.453 32.0067C44.1883 29.2444 44.1843 26.6059 43.4291 23.9995Z" fill="var(--fill-0, white)"/>
<path d="M20.0899 23.9995L12.538 24.0155C11.8227 26.7778 11.8067 29.3963 12.5739 32.0067L20.0939 31.9827C19.982 29.1884 19.994 26.6819 20.0939 23.9995H20.0899Z" fill="var(--fill-0, white)"/>
<path d="M32.0612 18.5748C31.7095 16.3641 31.1861 14.3133 30.4269 12.1826C28.6848 11.9467 27.1464 11.9068 25.5081 12.2586C24.5492 15.1288 23.9818 17.8472 23.5902 20.8094H32.4168L32.0612 18.5748Z" fill="var(--fill-0, white)"/>
<path d="M25.5761 43.8036C27.2543 44.0635 28.7487 44.0715 30.4509 43.7916C31.4938 40.8654 31.9852 38.159 32.3888 35.1968H23.5862C23.9898 38.203 24.5252 40.9893 25.5721 43.8036H25.5761Z" fill="var(--fill-0, white)"/>
<path d="M42.2343 20.7375C40.3364 17.1596 37.6192 14.7331 34.1909 13.2699C34.8342 15.9363 35.2658 18.227 35.6254 20.8174L42.2383 20.7375H42.2343Z" fill="var(--fill-0, white)"/>
<path d="M21.8081 13.2819C18.2679 14.769 15.4828 17.3875 13.7447 20.8054H20.3656C20.7612 18.0751 21.1847 15.8884 21.8081 13.2819Z" fill="var(--fill-0, white)"/>
<path d="M34.2388 42.7083C37.859 41.1172 40.5641 38.5748 42.2223 35.2168L35.6294 35.1928C35.2578 37.8112 34.7863 40.1778 34.2388 42.7083Z" fill="var(--fill-0, white)"/>
<path d="M13.7487 35.2088C15.4788 38.6187 18.2718 41.2332 21.8081 42.7123C21.1688 40.0858 20.7412 37.7592 20.3456 35.1928L13.7447 35.2088H13.7487Z" fill="var(--fill-0, white)"/>
</g>
</g>
</svg>
